#!OML:ASF F:\VICON\USERDATA\INSTALL\rory3\rory3.ASF
:FULLY-SPECIFIED
:DEGREES
229
root 4.16769 18.8058 15.4681 -14.4159 -80.3454 18.3676
lowerback 32.4922 0.38588 2.87505
upperback 7.04444 1.2558 5.19211
thorax -9.02888 0.209837 3.54905
lowerneck -10.9203 -0.343991 -3.47097
upperneck 11.0354 1.10116 -9.15263
head 5.18126 -0.307364 -2.21762
rclavicle -1.59028e-015 -7.79236e-014
rhumerus -29.9961 -38.8519 -41.2502
rradius 59.9965
rwrist -26.2893
rhand -11.0758 3.31662
rfingers 7.12502
rthumb 14.9474 -26.124
lclavicle -1.59028e-015 -7.79236e-014
lhumerus -48.7228 5.12011 74.5835
lradius 52.6985
lwrist 19.0165
lhand -16.1232 54.6882
lfingers 7.12502
lthumb 10.0813 84.4267
rfemur -26.8691 -7.2898 20.1911
rtibia 57.5842
rfoot -2.60173 5.01482
rtoes -3.27314
lfemur -20.4997 -3.26595 -17.8815
ltibia 31.4072
lfoot 0.570791 -11.4431
ltoes -24.6334
230
root 4.19951 18.8032 15.6124 -17.7242 -80.3422 21.9791
lowerback 32.0719 0.653573 2.24901
upperback 6.90223 1.37845 4.82222
thorax -9.03275 0.29771 3.44387
lowerneck -10.8389 -0.415085 -3.28074
upperneck 11.1998 0.965605 -8.96755
head 5.21198 -0.354937 -2.2016
rclavicle -5.88403e-014 -3.97569e-014
rhumerus -30.713 -37.4804 -41.5935
rradius 61.8693
rwrist -24.4677
rhand -11.8481 3.82586
rfingers 7.12502
rthumb 14.2033 -25.6685
lclavicle -5.88403e-014 -3.97569e-014
lhumerus -49.0334 4.85603 74.3103
lradius 53.2175
lwrist 19.3925
lhand -15.714 54.5311
lfingers 7.12502
lthumb 10.476 84.2501
rfemur -26.6949 -6.26403 20.2338
rtibia 56.7413
rfoot -1.21418 5.35808
rtoes -4.47415
lfemur -20.6637 -3.48832 -17.9905
ltibia 31.7371
lfoot -3.33386 -9.78023
ltoes -31.4325
231
root 4.22998 18.7719 15.7724 -19.4595 -80.4287 23.9128
lowerback 31.3673 0.749567 2.1501
upperback 7.23386 1.42008 4.30037
thorax -9.04791 0.363464 3.14842
lowerneck -10.9164 -0.423672 -3.04784
upperneck 11.3846 0.917286 -8.74444
head 5.27856 -0.358904 -2.17525
rclavicle -2.38542e-015 3.49861e-014
rhumerus -31.3329 -36.5269 -42.0719
rradius 63.8489
rwrist -22.5097
rhand -12.3916 4.13177
rfingers 7.12502
rthumb 13.6796 -25.3987
lclavicle -2.38542e-015 3.49861e-014
lhumerus -49.3692 4.65348 73.9611
lradius 53.9668
lwrist 19.7565
lhand -15.4824 54.4341
lfingers 7.12502
lthumb 10.6994 84.1417
rfemur -26.44 -6.51623 20.4072
rtibia 55.7983
rfoot 0.766566 5.95875
rtoes -4.88366
lfemur -20.676 -4.01617 -17.7681
ltibia 32.0885
lfoot -6.67154 -7.55363
ltoes -38.4437
232
root 4.25905 18.7436 15.9318 -20.0022 -80.1761 24.4347
lowerback 31.1 0.73888 2.33844
upperback 7.15748 1.44824 4.03315
thorax -8.99661 0.380759 2.71944
lowerneck -10.8733 -0.508065 -2.73298
upperneck 11.4602 0.760313 -8.75192
head 5.28881 -0.422133 -2.24122
rclavicle -1.82882e-014 -2.22639e-014
rhumerus -32.2645 -35.7858 -42.1913
rradius 65.8961
rwrist -20.0596
rhand -12.0746 4.42562
rfingers 7.12502
rthumb 13.9851 -25.084
lclavicle -1.82882e-014 -2.22639e-014
lhumerus -49.605 4.30817 73.7683
lradius 54.5533
lwrist 19.963
lhand -15.1615 54.2119
lfingers 7.12502
lthumb 11.009 83.9032
rfemur -25.7196 -6.38399 20.5825
rtibia 54.7223
rfoot 2.51529 5.40576
rtoes -22.9133
lfemur -20.5799 -4.15854 -17.4022
ltibia 32.4924
lfoot -8.83206 -5.95389
ltoes -39.8004
233
root 4.29054 18.7145 16.0864 -20.7191 -79.7384 24.9737
lowerback 31.0674 0.73286 2.47211
upperback 7.14738 1.46449 3.78451
thorax -8.9821 0.389156 2.35118
lowerneck -11.0181 -0.629512 -2.14465
upperneck 11.5294 0.550118 -9.00952
head 5.32759 -0.521012 -2.43649
rclavicle -5.56597e-015 -3.65764e-014
rhumerus -33.0915 -35.279 -42.3843
rradius 67.9221
rwrist -16.891
rhand -11.5876 4.61184
rfingers 7.12502
rthumb 14.4544 -24.8648
lclavicle -5.56597e-015 -3.65764e-014
lhumerus -49.6421 3.87602 73.593
lradius 55.0829
lwrist 20.2284
lhand -14.6646 53.719
lfingers 7.12502
lthumb 11.4882 83.3842
rfemur -24.8334 -7.24128 20.5801
rtibia 53.6003
rfoot 3.87426 5.46602
rtoes -9.31877
lfemur -20.4833 -4.04319 -17.0667
ltibia 32.9528
lfoot -10.1409 -4.8653
ltoes -38.8323
